<svg xmlns="http://www.w3.org/2000/svg" xmlns:xlink="http://www.w3.org/1999/xlink"><symbol id="arrow-left-white" viewBox="0 0 18 34"><g fill="none">
<path d="M17 1L0.999999 17L17 33" stroke="#fff"/>
</g></symbol><symbol id="arrow-left" viewBox="0 0 18 34"><g fill="none">
<path d="M17 1L0.999999 17L17 33" stroke="#102654"/>
</g></symbol><symbol id="arrow-right" viewBox="0 0 18 34"><g fill="none">
<path d="M1 1L17 17L1 33" stroke="#102654"/>
</g></symbol><symbol id="close" viewBox="0 0 42 42"><g fill="none">
<circle cx="21" cy="21" r="20.5" fill="#102654" stroke="#102654"/>
<path d="M30 21H21H12" stroke="white"/>
</g></symbol><symbol id="icon-close" viewBox="0 0 20 20"><g fill="none"><path d="M.293 18.291a1 1 0 101.414 1.414L10 11.413l8.292 8.292a1 1 0 101.414-1.414l-8.292-8.292 8.292-8.292A1 1 0 1018.291.293L9.999 8.585 1.707.293A1 1 0 10.293 1.707L8.585 10 .293 18.291z"/></g></symbol><symbol id="open-default" viewBox="0 0 42 42"><g fill="none">
<g id="open">
<circle id="circle" cx="21" cy="21" r="20.5" stroke="#102654"/>
<path id="icon/plus" d="M21 12V21M21 30V21M21 21H30M21 21H12" stroke="#102654"/>
</g>
</g></symbol><symbol id="open-disabled" viewBox="0 0 42 42"><g fill="none">
<g id="open" opacity="0.3">
<circle id="circle" cx="21" cy="21" r="20.5" stroke="#102654"/>
<path id="icon/plus" d="M21 12V21M21 30V21M21 21H30M21 21H12" stroke="#102654"/>
</g>
</g></symbol><symbol id="open-hover" viewBox="0 0 42 42"><g fill="none">
<g id="open">
<circle id="circle" cx="21" cy="21" r="21" fill="#102654"/>
<path id="icon/plus" d="M21 12V21M21 30V21M21 21H30M21 21H12" stroke="white"/>
</g>
</g></symbol><symbol id="ruble" viewBox="0 0 30 42"><g fill="none">
<path fill-rule="evenodd" clip-rule="evenodd" d="M0 17H6V23H0V17Z" fill="#102654"/>
<path fill-rule="evenodd" clip-rule="evenodd" d="M3.65854 28.3214V18H9.65854V28.3214H21V34.3214H9.65854V42H3.65854V34.3214H0V28.3214H3.65854Z" fill="#102654"/>
<path fill-rule="evenodd" clip-rule="evenodd" d="M18.5 6H10V17H18.5C21.5376 17 24 14.5376 24 11.5C24 8.46243 21.5376 6 18.5 6ZM4 0V23H18.5C24.8513 23 30 17.8513 30 11.5C30 5.14873 24.8513 0 18.5 0H4Z" fill="#102654"/>
</g></symbol></svg>